<svg width="110" height="53" viewBox="0 0 110 53" fill="none" xmlns="http://www.w3.org/2000/svg">
<path fill-rule="evenodd" clip-rule="evenodd" d="M93.508 39.2888H97.6215V34.4899H93.508V39.2888Z" fill="#FF806B"/>
<path fill-rule="evenodd" clip-rule="evenodd" d="M79.7497 22.7158C79.7497 21.8214 80.4777 21.0963 81.3758 21.0963C82.2739 21.0963 83.0019 21.8214 83.0019 22.7158C83.0019 23.6103 82.2739 24.3353 81.3758 24.3353C80.4777 24.3353 79.7497 23.6103 79.7497 22.7158ZM61.3963 33.3081H77.3407V25.4841H61.3963V33.3081ZM61.4924 47.2229H61.4716C60.0664 47.2229 58.9272 46.065 58.9272 44.6654H54.0358L54.395 39.6126L58.9272 39.6204C58.9272 38.2206 60.0664 37.086 61.4716 37.086H61.4924C62.8977 37.086 64.037 38.2206 64.037 39.6204C64.037 41.0198 62.8977 42.1544 61.4924 42.1544C62.8977 42.1544 64.037 43.2891 64.037 44.6885C64.037 46.0883 62.8977 47.2229 61.4924 47.2229ZM37.3192 19.4756C37.3192 17.6339 38.8181 16.1411 40.6671 16.1411C42.516 16.1411 44.0149 17.6339 44.0149 19.4756C44.0149 21.3169 42.516 22.8098 40.6671 22.8098C38.8181 22.8098 37.3192 21.3169 37.3192 19.4756ZM29.4461 26.7389C28.745 26.2152 27.1042 25.9205 27.1042 25.9205C27.1042 25.9205 26.2901 25.7982 25.855 25.7982C23.9282 25.7982 22.3728 26.7389 22.3728 26.7389V25.9828C22.3728 24.206 24.1603 22.7657 25.7071 22.7657H26.1119C27.6586 22.7657 29.4461 24.206 29.4461 25.9828V26.7389ZM80.6946 14.1216C72.9759 14.2006 65.9799 17.2833 60.8283 22.2516C58.2584 24.7302 54.0879 24.4211 51.8691 21.6266C47.7736 16.4693 42.1729 13.2908 35.996 13.2908C28.1938 13.2908 20.9494 17.9116 18.562 27.578C9.03049 29.453 0.499939 36.3323 0.499939 46.3755C0.499939 48.4408 0.805307 50.4348 1.37118 52.3169H9.13961C6.61249 52.3169 4.56377 50.2765 4.56377 47.7595C4.57313 46.8592 4.7976 45.9694 5.24847 45.189C7.75134 40.858 12.4945 37.9251 18.0853 37.9251C19.5098 37.9251 20.8865 38.1171 22.1902 38.4725C23.4212 32.425 28.5773 27.8863 34.7534 27.8863C41.8469 27.8863 47.5972 33.8727 47.5972 41.2571C47.5972 45.8554 45.367 49.9106 41.9718 52.3169H73.5755C69.4756 52.3169 66.1521 49.0068 66.1521 44.9235L67.8017 44.9237C67.8017 48.0944 70.3917 50.6739 73.5753 50.6739C76.7591 50.6739 79.3491 48.0944 79.3491 44.9237L80.9987 44.9235C80.9987 49.0068 77.6752 52.3169 73.5755 52.3169L84.2092 52.2724L84.2911 52.0918C87.4263 51.1961 89.7227 48.3055 89.7227 44.8755C89.7227 41.1975 87.0822 38.1394 83.5981 37.497V28.6051H100.335V42.3652C100.335 45.5787 97.7193 48.1837 94.4928 48.1837H93.9891L94.216 48.1889C95.6094 48.1889 96.1833 48.7446 96.8804 49.741C97.407 50.4938 98.078 51.135 98.867 51.6081L99.9753 52.2724L108.459 52.3169C109.458 49.3949 110 46.2627 110 43.0043C110 27.0381 96.7247 13.9575 80.6946 14.1216Z" fill="#FFE59A"/>
<path fill-rule="evenodd" clip-rule="evenodd" d="M83.0018 37.4127C78.8464 37.4127 75.4778 40.7679 75.4778 44.9064C75.4778 46.7122 76.1193 48.3686 77.1874 49.6624C78.7009 48.6246 79.6954 46.888 79.6954 44.9236H81.3452C81.3452 47.3353 80.1851 49.4767 78.3912 50.8262C79.6649 51.8117 81.264 52.4002 83.0018 52.4002C87.1573 52.4002 90.5258 49.0452 90.5258 44.9064C90.5258 40.7679 87.1573 37.4127 83.0018 37.4127Z" fill="#FFA303"/>
<path fill-rule="evenodd" clip-rule="evenodd" d="M26.3025 52.3021C26.1861 52.3109 26.0688 52.3167 25.9502 52.3167H26.3224C26.3158 52.3121 26.3093 52.3069 26.3025 52.3021Z" fill="#81E2DF"/>
<path fill-rule="evenodd" clip-rule="evenodd" d="M6.89875 36.392C6.89875 38.2895 5.35441 39.8274 3.44929 39.8274C1.54433 39.8274 0 38.2895 0 36.392C0 34.4946 1.54433 32.9567 3.44929 32.9567C5.35441 32.9567 6.89875 34.4946 6.89875 36.392Z" fill="#81E236"/>
<path fill-rule="evenodd" clip-rule="evenodd" d="M33.8437 8.78019C33.8437 9.33498 33.3921 9.78471 32.8353 9.78471C32.2782 9.78471 31.8267 9.33498 31.8267 8.78019C31.8267 8.2254 32.2782 7.77567 32.8353 7.77567C33.3921 7.77567 33.8437 8.2254 33.8437 8.78019Z" fill="#81E236"/>
<path fill-rule="evenodd" clip-rule="evenodd" d="M71.3043 1.92107C71.3043 2.982 70.4409 3.84213 69.3755 3.84213C68.3102 3.84213 67.4466 2.982 67.4466 1.92107C67.4466 0.860132 68.3102 0 69.3755 0C70.4409 0 71.3043 0.860132 71.3043 1.92107Z" fill="#81E236"/>
<path fill-rule="evenodd" clip-rule="evenodd" d="M100.961 13.7001C100.961 14.7151 100.135 15.538 99.1156 15.538C98.0964 15.538 97.2701 14.7151 97.2701 13.7001C97.2701 12.685 98.0964 11.8622 99.1156 11.8622C100.135 11.8622 100.961 12.685 100.961 13.7001Z" fill="#81E236"/>
<path fill-rule="evenodd" clip-rule="evenodd" d="M35.0998 43.0041C34.153 43.0041 33.3855 42.2397 33.3855 41.2968C33.3855 40.3539 34.153 39.5895 35.0998 39.5895C36.0465 39.5895 36.814 40.3539 36.814 41.2968C36.814 42.2397 36.0465 43.0041 35.0998 43.0041ZM35.2141 30.2767C30.0031 30.2767 25.6687 34.1478 24.745 39.2609C25.333 39.5236 25.9008 39.8205 26.4433 40.1515L27.9248 41.183C29.3408 42.3031 30.533 43.6688 31.4284 45.2109C31.8765 45.9829 32.0891 46.868 32.0847 47.7595C32.0847 49.128 31.4783 50.3548 30.5196 51.1901C31.9359 51.9106 33.529 52.3169 35.2141 52.3169C41.0977 52.3169 45.8675 47.3829 45.8675 41.2968C45.8675 35.2107 41.0977 30.2767 35.2141 30.2767Z" fill="#FF806B"/>
<path fill-rule="evenodd" clip-rule="evenodd" d="M55.0497 13.3083H69.906V8.86945H55.0497V13.3083Z" fill="#FF806B"/>
<path fill-rule="evenodd" clip-rule="evenodd" d="M54.8428 40.5905L54.9114 39.626L59.4436 39.6338C59.4436 38.2956 60.4856 37.2024 61.8053 37.1087V19.6934L55.4745 13.3217L48.9995 19.6934V32.5866C52.1792 33.9844 54.4787 37.0023 54.8428 40.5905Z" fill="#FFA303"/>
<path fill-rule="evenodd" clip-rule="evenodd" d="M59.4435 44.6789H54.5523L54.603 43.9671C53.8617 46.9406 51.7634 49.3799 48.9995 50.5951V52.2859H61.8054V47.227C60.4857 47.1314 59.4435 46.017 59.4435 44.6789Z" fill="#FFA303"/>
<path fill-rule="evenodd" clip-rule="evenodd" d="M23.4626 22.716V18.8595C23.4626 17.5657 24.5158 16.5167 25.815 16.5167H27.7631V18.0946H26.3319C25.7473 18.0946 25.2734 18.5666 25.2734 19.149V22.716H23.4626Z" fill="white"/>
<path fill-rule="evenodd" clip-rule="evenodd" d="M75.0373 44.9121C75.0375 44.9162 75.038 44.9202 75.038 44.9245C75.038 45.5679 74.514 46.0898 73.868 46.0898C73.2219 46.0898 72.6979 45.5679 72.6979 44.9245C72.6979 44.9184 72.6988 44.9127 72.699 44.9067C71.1143 44.9052 69.5123 44.9086 67.9633 44.9245C67.9633 48.1723 70.6069 50.8053 73.868 50.8053C77.1291 50.8053 79.7728 48.1723 79.7728 44.9245C78.3153 44.9245 76.7065 44.9174 75.0373 44.9121Z" fill="#FF806B"/>
<path fill-rule="evenodd" clip-rule="evenodd" d="M29.7731 48.3923H11.75C9.22266 48.3923 7.17412 46.352 7.17412 43.8351C7.17793 43.4754 7.2176 43.1177 7.29069 42.7676C6.64895 43.4896 6.08013 44.2743 5.59601 45.112C5.14498 45.8925 4.92067 46.7823 4.91132 47.6826C4.91132 50.1995 6.96003 52.24 9.48698 52.24H27.5103C30.0085 52.24 32.0378 50.2454 32.0837 47.768C31.4054 48.1643 30.6162 48.3923 29.7731 48.3923Z" fill="#FFA303"/>
<path fill-rule="evenodd" clip-rule="evenodd" d="M34.6898 27.8971L34.6993 27.8415C35.0123 25.8335 33.4236 24.017 31.3484 24.0101C31.0205 24.0091 30.7035 24.0536 30.4037 24.1378L29.5118 24.4519C29.8079 24.9285 29.9878 25.4726 29.9878 26.0507V26.8486C29.2479 26.296 27.5165 25.9852 27.5165 25.9852C27.5165 25.9852 26.6575 25.856 26.1984 25.856C24.1652 25.856 22.5241 26.8486 22.5241 26.8486V26.0507C22.5241 25.65 22.6108 25.2655 22.7624 24.9085C22.1557 24.3463 21.3374 24.0017 20.4355 24.0044C18.3603 24.0108 16.7721 25.8309 17.3306 27.8431L19.0526 37.9715C19.0526 37.9715 19.0964 37.9911 19.1758 38.0263C20.1121 38.0777 21.3106 38.2061 22.5305 38.5002C23.7242 32.5735 28.6875 28.0936 34.6898 27.8971Z" fill="#FFA303"/>
<path fill-rule="evenodd" clip-rule="evenodd" d="M76.0948 9.68038C75.7067 9.68038 75.3908 9.99502 75.3908 10.3816C75.3908 10.7684 75.7067 11.0831 76.0948 11.0831C76.483 11.0831 76.7989 10.7684 76.7989 10.3816C76.7989 9.99502 76.483 9.68038 76.0948 9.68038ZM76.0948 11.7734C75.3244 11.7734 74.6977 11.1492 74.6977 10.3816C74.6977 9.61427 75.3244 8.98999 76.0948 8.98999C76.8652 8.98999 77.492 9.61427 77.492 10.3816C77.492 11.1492 76.8652 11.7734 76.0948 11.7734Z" fill="#18262D"/>
<path fill-rule="evenodd" clip-rule="evenodd" d="M16.5623 6.8622C16.0178 6.8622 15.5751 7.30335 15.5751 7.84531C15.5751 8.3876 16.0178 8.82876 16.5623 8.82876C17.1067 8.82876 17.5494 8.3876 17.5494 7.84531C17.5494 7.30335 17.1067 6.8622 16.5623 6.8622ZM16.5623 9.51915C15.6357 9.51915 14.882 8.76818 14.882 7.84531C14.882 6.92261 15.6357 6.17181 16.5623 6.17181C17.4888 6.17181 18.2426 6.92261 18.2426 7.84531C18.2426 8.76818 17.4888 9.51915 16.5623 9.51915Z" fill="#18262D"/>
<path fill-rule="evenodd" clip-rule="evenodd" d="M45.0821 9.09616H45.7752V7.61407H45.0821V9.09616Z" fill="#18262D"/>
<path fill-rule="evenodd" clip-rule="evenodd" d="M45.0821 5.63785H45.7752V4.15576H45.0821V5.63785Z" fill="#18262D"/>
<path fill-rule="evenodd" clip-rule="evenodd" d="M42.9487 6.97133H44.4366V6.28094H42.9487V6.97133Z" fill="#18262D"/>
<path fill-rule="evenodd" clip-rule="evenodd" d="M46.4207 6.97133H47.9087V6.28094H46.4207V6.97133Z" fill="#18262D"/>
<path fill-rule="evenodd" clip-rule="evenodd" d="M88.4529 7.10769H89.1461V6.22589H88.4529V7.10769Z" fill="#18262D"/>
<path fill-rule="evenodd" clip-rule="evenodd" d="M88.4529 5.04998H89.1461V4.16818H88.4529V5.04998Z" fill="#18262D"/>
<path fill-rule="evenodd" clip-rule="evenodd" d="M87.324 5.98305H88.2093V5.29266H87.324V5.98305Z" fill="#18262D"/>
<path fill-rule="evenodd" clip-rule="evenodd" d="M89.39 5.98305H90.2753V5.29266H89.39V5.98305Z" fill="#18262D"/>
<path fill-rule="evenodd" clip-rule="evenodd" d="M4.69934 27.9036H5.39246V26.6466H4.69934V27.9036Z" fill="#18262D"/>
<path fill-rule="evenodd" clip-rule="evenodd" d="M4.69934 24.9705H5.39246V23.7135H4.69934V24.9705Z" fill="#18262D"/>
<path fill-rule="evenodd" clip-rule="evenodd" d="M2.94244 26.1536H4.20445V25.4633H2.94244V26.1536Z" fill="#18262D"/>
<path fill-rule="evenodd" clip-rule="evenodd" d="M5.88721 26.1536H7.14904V25.4633H5.88721V26.1536Z" fill="#18262D"/>
<path fill-rule="evenodd" clip-rule="evenodd" d="M87.324 53H93.5235V52.3096H87.324V53Z" fill="#18262D"/>
<path fill-rule="evenodd" clip-rule="evenodd" d="M48.0529 47.309L47.397 47.0862C47.8737 45.6941 48.1515 44.2349 48.2227 42.7499C48.3256 40.6121 48.0031 38.5227 47.2641 36.5396L47.9139 36.2991C48.6855 38.3701 49.0226 40.5517 48.9153 42.7829C48.8408 44.3328 48.5505 45.8554 48.0529 47.309Z" fill="#18262D"/>
<path fill-rule="evenodd" clip-rule="evenodd" d="M33.8459 53C32.1832 53 30.5863 52.6221 29.0993 51.8764L29.4111 51.2599C30.8004 51.9563 32.2926 52.3097 33.8459 52.3097C39.5049 52.3097 44.1089 47.5006 44.1089 41.5895C44.1089 35.6785 39.5049 30.8694 33.8459 30.8694C28.9347 30.8694 24.6968 34.5195 23.7689 39.5482L23.0872 39.4236C24.0756 34.0669 28.6003 30.179 33.8459 30.179C39.8871 30.179 44.8021 35.2979 44.8021 41.5895C44.8021 47.8814 39.8871 53 33.8459 53Z" fill="#18262D"/>
<path fill-rule="evenodd" clip-rule="evenodd" d="M44.7527 52.0652L44.6695 51.3798C49.4784 50.8004 53.105 46.7251 53.105 41.9C53.105 37.0678 49.4724 32.9918 44.6553 32.4188L36.5526 31.234L36.6531 30.5511L44.7468 31.7344C49.903 32.3478 53.7982 36.7186 53.7982 41.9C53.7982 47.0737 49.9094 51.4439 44.7527 52.0652Z" fill="#18262D"/>
<path fill-rule="evenodd" clip-rule="evenodd" d="M60.4334 47.9034H60.4126C58.9341 47.9034 57.7113 46.7839 57.5408 45.3448H52.9736V44.6544H58.2135V44.9996C58.2135 46.22 59.2001 47.213 60.4126 47.213H60.4334C61.6458 47.213 62.6323 46.2306 62.6323 45.0229C62.6323 43.8151 61.6458 42.8325 60.4334 42.8325V42.1421C61.6458 42.1421 62.6323 41.1595 62.6323 39.9519C62.6323 38.7442 61.6458 37.7616 60.4334 37.7616H60.4126C59.2001 37.7616 58.2135 38.7442 58.2135 39.9519V40.2977L53.3323 40.2893L53.3335 39.5989L57.5411 39.6061C57.7132 38.1802 58.9352 37.0712 60.4126 37.0712H60.4334C62.0281 37.0712 63.3254 38.3636 63.3254 39.9519C63.3254 41.0461 62.7098 41.9999 61.8052 42.4873C62.7098 42.9747 63.3254 43.9286 63.3254 45.0229C63.3254 46.6111 62.0281 47.9034 60.4334 47.9034Z" fill="#18262D"/>
<path fill-rule="evenodd" clip-rule="evenodd" d="M33.6832 40.2893C32.9414 40.2893 32.3379 40.8902 32.3379 41.6293C32.3379 42.3682 32.9414 42.9692 33.6832 42.9692C34.4249 42.9692 35.0284 42.3682 35.0284 41.6293C35.0284 40.8902 34.4249 40.2893 33.6832 40.2893ZM33.6832 43.6595C32.5593 43.6595 31.6447 42.7488 31.6447 41.6293C31.6447 40.5097 32.5593 39.5989 33.6832 39.5989C34.8071 39.5989 35.7215 40.5097 35.7215 41.6293C35.7215 42.7488 34.8071 43.6595 33.6832 43.6595Z" fill="#18262D"/>
<path fill-rule="evenodd" clip-rule="evenodd" d="M76.6348 39.8684H75.9417V20.2399L68.9744 13.9718H54.1754L47.9003 20.2295V32.8577H47.2072V19.9437L53.8881 13.2815H69.2411L76.6348 19.9331V39.8684Z" fill="#18262D"/>
<path fill-rule="evenodd" clip-rule="evenodd" d="M60.2285 20.3545L53.6476 13.7441V8.8403H69.2036V11.8996H68.5104V9.53069H54.3407V13.46L60.7206 19.8685L60.2285 20.3545Z" fill="#18262D"/>
<path fill-rule="evenodd" clip-rule="evenodd" d="M60.0882 37.4164H60.7814V21.7689H60.0882V37.4164Z" fill="#18262D"/>
<path fill-rule="evenodd" clip-rule="evenodd" d="M60.0882 52.6548H60.7814V47.5582H60.0882V52.6548Z" fill="#18262D"/>
<path fill-rule="evenodd" clip-rule="evenodd" d="M51.2699 20.3869L51.2689 19.6965L76.0401 19.6565L76.0411 20.3469L51.2699 20.3869Z" fill="#18262D"/>
<path fill-rule="evenodd" clip-rule="evenodd" d="M60.7814 33.3587H75.9417V26.1536H60.7814V33.3587ZM60.0882 34.0491H76.6348V25.4633H60.0882V34.0491Z" fill="#18262D"/>
<path fill-rule="evenodd" clip-rule="evenodd" d="M53.6477 34.876H54.3409V25.0765H53.6477V34.876Z" fill="#18262D"/>
<path fill-rule="evenodd" clip-rule="evenodd" d="M93.8003 48.8648H88.2442V48.1744H93.8003C96.8318 48.1744 99.2983 45.7178 99.2983 42.6981V29.2763H83.2477V31.8699H82.5545V28.5859H99.9914V42.6981C99.9914 46.0986 97.2141 48.8648 93.8003 48.8648Z" fill="#18262D"/>
<path fill-rule="evenodd" clip-rule="evenodd" d="M99.1063 52.9061L97.9978 52.2413C97.1772 51.7494 96.473 51.0878 95.9044 50.2751C95.2115 49.2842 94.7275 48.87 93.5234 48.87V48.1796C95.0115 48.1796 95.6844 48.7524 96.4733 49.8803C96.9857 50.613 97.6187 51.2083 98.3551 51.6498L99.4638 52.3145L99.1063 52.9061Z" fill="#18262D"/>
<path fill-rule="evenodd" clip-rule="evenodd" d="M102.909 42.886H101.382V42.1956H102.909C104.228 42.1956 105.301 41.127 105.301 39.8136V39.2891C105.301 37.9758 104.228 36.9071 102.909 36.9071H101.382V36.2167H102.909C104.61 36.2167 105.994 37.595 105.994 39.2891V39.8136C105.994 41.5078 104.61 42.886 102.909 42.886Z" fill="#18262D"/>
<path fill-rule="evenodd" clip-rule="evenodd" d="M94.0773 33.9659H94.7704V28.9311H94.0773V33.9659Z" fill="#18262D"/>
<path fill-rule="evenodd" clip-rule="evenodd" d="M92.7168 38.4982H96.1307V34.4685H92.7168V38.4982ZM92.0239 39.1886H96.824V33.7781H92.0239V39.1886Z" fill="#18262D"/>
<path fill-rule="evenodd" clip-rule="evenodd" d="M94.4239 35.5698C94.3537 35.5698 94.2967 35.6266 94.2967 35.6965C94.2967 35.7666 94.3537 35.8236 94.4239 35.8236C94.494 35.8236 94.551 35.7666 94.551 35.6965C94.551 35.6266 94.494 35.5698 94.4239 35.5698ZM94.4239 36.5139C93.9716 36.5139 93.6035 36.1473 93.6035 35.6965C93.6035 35.2461 93.9716 34.8795 94.4239 34.8795C94.8761 34.8795 95.2442 35.2461 95.2442 35.6965C95.2442 36.1473 94.8761 36.5139 94.4239 36.5139Z" fill="#18262D"/>
<path fill-rule="evenodd" clip-rule="evenodd" d="M86.9773 26.8857H87.6704V23.1096H86.9773V26.8857Z" fill="#18262D"/>
<path fill-rule="evenodd" clip-rule="evenodd" d="M91.0844 26.8857H91.7775V20.5923H91.0844V26.8857Z" fill="#18262D"/>
<path fill-rule="evenodd" clip-rule="evenodd" d="M95.1913 26.8856H95.8844V22.4803H95.1913V26.8856Z" fill="#18262D"/>
<path fill-rule="evenodd" clip-rule="evenodd" d="M91.0844 19.0189H91.7775V17.4457H91.0844V19.0189Z" fill="#18262D"/>
<path fill-rule="evenodd" clip-rule="evenodd" d="M74.4837 44.0481L73.7994 43.9378C74.3532 40.5249 77.1472 37.8535 80.5939 37.4418L80.6764 38.127C77.535 38.5024 74.9885 40.9374 74.4837 44.0481Z" fill="#18262D"/>
<path fill-rule="evenodd" clip-rule="evenodd" d="M81.5368 53C80.5815 53 79.6482 52.8307 78.7625 52.4967L79.0079 51.8512C79.8149 52.1553 80.6657 52.3096 81.5368 52.3096C85.4765 52.3096 88.6817 49.1171 88.6817 45.193C88.6817 41.5895 85.9771 38.5515 82.3905 38.1263L82.4723 37.4408C86.4074 37.9073 89.3748 41.2398 89.3748 45.193C89.3748 49.4977 85.8586 53 81.5368 53Z" fill="#18262D"/>
<path fill-rule="evenodd" clip-rule="evenodd" d="M65.4501 45.603C65.6315 49.3316 68.7339 52.3096 72.5215 52.3096C76.3089 52.3096 79.4113 49.3316 79.5927 45.603H78.6343C78.4541 48.8059 75.7813 51.3563 72.5215 51.3563C69.2616 51.3563 66.5885 48.8059 66.4083 45.603H65.4501ZM72.5215 52.9999C68.2354 52.9999 64.7485 49.5268 64.7485 45.2578V44.9126H67.0919V45.2578C67.0919 48.2397 69.5276 50.6659 72.5215 50.6659C75.5153 50.6659 77.9509 48.2397 77.9509 45.2578V44.9126H80.2944V45.2578C80.2944 49.5268 76.8074 52.9999 72.5215 52.9999Z" fill="#18262D"/>
<path fill-rule="evenodd" clip-rule="evenodd" d="M72.259 51.1425H72.9521V46.4348H72.259V51.1425Z" fill="#18262D"/>
<path fill-rule="evenodd" clip-rule="evenodd" d="M69.0321 49.4717L68.5421 48.9836L71.5844 45.9532L72.0744 46.4413L69.0321 49.4717Z" fill="#18262D"/>
<path fill-rule="evenodd" clip-rule="evenodd" d="M76.2251 49.7254L72.9281 46.4414L73.4181 45.9533L76.7152 49.2373L76.2251 49.7254Z" fill="#18262D"/>
<path fill-rule="evenodd" clip-rule="evenodd" d="M72.5064 46.7098C71.8221 46.7098 71.2463 46.2376 71.0903 45.603H67.7716V44.9126H71.7418V45.2578C71.7418 45.6779 72.0848 46.0195 72.5064 46.0195C72.9281 46.0195 73.2711 45.6779 73.2711 45.2578V44.9126H80.0176V45.603H73.9226C73.7666 46.2376 73.1908 46.7098 72.5064 46.7098Z" fill="#18262D"/>
<path fill-rule="evenodd" clip-rule="evenodd" d="M81.1914 38.6232H81.8845V33.847H81.1914V38.6232Z" fill="#18262D"/>
<path fill-rule="evenodd" clip-rule="evenodd" d="M83.398 36.3327C83.9239 36.4 85.2178 36.4837 85.8912 35.8131C86.5145 35.1923 86.4997 33.9714 86.4152 33.3326C85.8891 33.2653 84.5952 33.1814 83.922 33.8519C83.2987 34.4729 83.3134 35.6937 83.398 36.3327ZM84.0731 37.0676C83.5025 37.0676 83.0672 36.9813 83.0273 36.9732L82.8036 36.9272L82.7577 36.7046C82.739 36.6142 82.3134 34.4779 83.432 33.3638C84.5505 32.2495 86.695 32.6736 86.7862 32.6921L87.0097 32.738L87.0556 32.9608C87.0743 33.0511 87.4997 35.1871 86.3812 36.3012C85.7536 36.9264 84.8026 37.0676 84.0731 37.0676Z" fill="#18262D"/>
<path fill-rule="evenodd" clip-rule="evenodd" d="M81.6727 40.223C81.1419 40.223 80.5134 40.1155 79.8175 39.7953L80.1079 39.1688C81.8419 39.9662 83.0454 39.2014 83.0573 39.1934L83.4379 39.7706C83.3966 39.7975 82.7279 40.223 81.6727 40.223Z" fill="#18262D"/>
<path fill-rule="evenodd" clip-rule="evenodd" d="M86.3329 45.3414C86.1522 45.3414 86.0051 45.4879 86.0051 45.6681C86.0051 45.8481 86.1522 45.9945 86.3329 45.9945C86.5139 45.9945 86.661 45.8481 86.661 45.6681C86.661 45.4879 86.5139 45.3414 86.3329 45.3414ZM86.333 46.6849C85.77 46.6849 85.312 46.2289 85.312 45.6681C85.312 45.1073 85.77 44.651 86.333 44.651C86.8959 44.651 87.3541 45.1073 87.3541 45.6681C87.3541 46.2289 86.8959 46.6849 86.333 46.6849Z" fill="#18262D"/>
<path fill-rule="evenodd" clip-rule="evenodd" d="M85.7407 47.5654C85.6636 47.5654 85.6007 47.6279 85.6007 47.7049C85.6007 47.7817 85.6636 47.8442 85.7407 47.8442C85.8178 47.8442 85.8807 47.7817 85.8807 47.7049C85.8807 47.6279 85.8178 47.5654 85.7407 47.5654ZM85.7407 48.5346C85.2813 48.5346 84.9075 48.1625 84.9075 47.7049C84.9075 47.2472 85.2813 46.8751 85.7407 46.8751C86.2 46.8751 86.5738 47.2472 86.5738 47.7049C86.5738 48.1625 86.2 48.5346 85.7407 48.5346Z" fill="#18262D"/>
<path fill-rule="evenodd" clip-rule="evenodd" d="M14.8822 50.271H8.15668C6.96069 50.271 5.98096 49.302 5.97247 48.1106L6.6656 48.106C6.67132 48.9191 7.34035 49.5806 8.15668 49.5806H14.8822V50.271Z" fill="#18262D"/>
<path fill-rule="evenodd" clip-rule="evenodd" d="M8.51031 45.3259L7.87939 45.0397L10.3947 39.5405L11.0257 39.8268L8.51031 45.3259Z" fill="#18262D"/>
<path fill-rule="evenodd" clip-rule="evenodd" d="M13.8898 44.2778L13.2674 43.9737L16.1307 38.1612L16.7529 38.4651L13.8898 44.2778Z" fill="#18262D"/>
<path fill-rule="evenodd" clip-rule="evenodd" d="M18.8203 44.28L18.2003 43.9716L20.9264 38.5376L21.5464 38.8462L18.8203 44.28Z" fill="#18262D"/>
<path fill-rule="evenodd" clip-rule="evenodd" d="M26.1875 53H8.15673C5.44159 53 3.2326 50.7998 3.2326 48.0952C3.24283 47.1092 3.49565 46.1616 3.96368 45.3514C6.65594 40.6922 11.5691 37.9106 17.1063 37.9106C20.0246 37.9106 22.8586 38.6985 25.3024 40.1887L25.5637 40.3484L23.3051 45.2845L22.6744 44.9983L24.6773 40.6209C22.4034 39.2985 19.7927 38.601 17.1063 38.601C11.8201 38.601 7.13142 41.2531 4.56444 45.6958C4.1555 46.4034 3.93474 47.2345 3.92573 48.0988C3.92573 50.419 5.82367 52.3097 8.15673 52.3097H26.1875C28.5205 52.3097 30.4185 50.419 30.4185 48.0952C30.4225 47.2343 30.2116 46.4127 29.8083 45.7182C28.9347 44.2133 27.7841 42.8904 26.3876 41.7856L26.8189 41.245C28.2835 42.4037 29.4911 43.7924 30.4082 45.3727C30.873 46.173 31.1163 47.115 31.1116 48.0969C31.1116 50.7998 28.9026 53 26.1875 53Z" fill="#18262D"/>
<path fill-rule="evenodd" clip-rule="evenodd" d="M12.2793 41.6746C12.2438 41.6746 12.215 41.7034 12.215 41.7388C12.215 41.7742 12.2438 41.803 12.2793 41.803C12.3148 41.803 12.3438 41.7742 12.3438 41.7388C12.3438 41.7034 12.3148 41.6746 12.2793 41.6746ZM12.2793 42.4934C11.8617 42.4934 11.5219 42.1549 11.5219 41.7388C11.5219 41.3227 11.8617 40.9842 12.2793 40.9842C12.6971 40.9842 13.0369 41.3227 13.0369 41.7388C13.0369 42.1549 12.6971 42.4934 12.2793 42.4934Z" fill="#18262D"/>
<path fill-rule="evenodd" clip-rule="evenodd" d="M17.485 40.8559C17.4495 40.8559 17.4206 40.8847 17.4206 40.9201C17.4206 40.9555 17.4495 40.9841 17.485 40.9841C17.5206 40.9841 17.5495 40.9555 17.5495 40.9201C17.5495 40.8847 17.5206 40.8559 17.485 40.8559ZM17.485 41.6745C17.0673 41.6745 16.7274 41.3361 16.7274 40.9201C16.7274 40.504 17.0673 40.1655 17.485 40.1655C17.9028 40.1655 18.2426 40.504 18.2426 40.9201C18.2426 41.3361 17.9028 41.6745 17.485 41.6745Z" fill="#18262D"/>
<path fill-rule="evenodd" clip-rule="evenodd" d="M22.1428 41.6746C22.1073 41.6746 22.0783 41.7034 22.0783 41.7388C22.0783 41.7742 22.1073 41.803 22.1428 41.803C22.1783 41.803 22.2071 41.7742 22.2071 41.7388C22.2071 41.7034 22.1783 41.6746 22.1428 41.6746ZM22.1428 42.4934C21.725 42.4934 21.3852 42.1549 21.3852 41.7388C21.3852 41.3227 21.725 40.9842 22.1428 40.9842C22.5604 40.9842 22.9002 41.3227 22.9002 41.7388C22.9002 42.1549 22.5604 42.4934 22.1428 42.4934Z" fill="#18262D"/>
<path fill-rule="evenodd" clip-rule="evenodd" d="M17.348 50.2711H23.3757V49.5807H17.348V50.2711Z" fill="#18262D"/>
<path fill-rule="evenodd" clip-rule="evenodd" d="M17.2875 38.3708L15.5677 28.2543C15.2957 27.2535 15.4955 26.2131 16.1169 25.3971C16.7835 24.522 17.8656 23.9975 19.0117 23.9939H19.0238C19.9944 23.9939 20.9122 24.3579 21.6097 25.0196L21.1316 25.5195C20.5638 24.9806 19.8155 24.6843 19.0238 24.6843H19.0138C18.0826 24.6872 17.2059 25.1097 16.6693 25.8144C16.1685 26.4719 16.0162 27.2791 16.2406 28.0877L16.2482 28.1221L17.9708 38.2555L17.2875 38.3708Z" fill="#18262D"/>
<path fill-rule="evenodd" clip-rule="evenodd" d="M33.225 30.5819L32.5417 30.4666L32.9408 28.1203C33.0718 27.2794 32.8242 26.4175 32.2607 25.7601C31.6804 25.0831 30.8306 24.6931 29.929 24.69C29.6374 24.6846 29.3537 24.7276 29.0792 24.8047L28.8911 24.1404C29.2234 24.047 29.5688 23.9996 29.9176 23.9996H29.9314C31.0349 24.0034 32.0761 24.4815 32.7878 25.3118C33.4825 26.1223 33.7878 27.1862 33.6251 28.2309L33.225 30.5819Z" fill="#18262D"/>
<path fill-rule="evenodd" clip-rule="evenodd" d="M21.9054 39.1397L21.6916 34.096L22.384 34.067L22.5978 39.1107L21.9054 39.1397Z" fill="#18262D"/>
<path fill-rule="evenodd" clip-rule="evenodd" d="M26.1117 23.1329H25.4186V19.5642C25.4186 18.7923 26.0491 18.1642 26.824 18.1642H27.9093V17.2757H26.307C25.2004 17.2757 24.3002 18.1725 24.3002 19.2747V23.1329H23.6071V19.2747C23.6071 17.7918 24.8181 16.5853 26.307 16.5853H28.6024V18.8546H26.824C26.4314 18.8546 26.1117 19.1731 26.1117 19.5642V23.1329Z" fill="#18262D"/>
<path fill-rule="evenodd" clip-rule="evenodd" d="M24.633 23.3841C23.2792 23.3841 21.6439 24.6658 21.6439 26.2575V26.4479C22.2828 26.1541 23.4409 25.7278 24.781 25.7278C25.2371 25.7278 26.0482 25.8488 26.0823 25.8541L26.0922 25.8557C26.1482 25.8657 27.213 26.06 28.0273 26.4247V26.2575C28.0273 24.6658 26.392 23.3841 25.0382 23.3841H24.633ZM28.7204 27.7042L28.166 27.2903C27.6464 26.9023 26.413 26.6153 25.9744 26.5361C25.908 26.5262 25.1686 26.4182 24.781 26.4182C22.9714 26.4182 21.492 27.3001 21.4772 27.3091L20.9508 27.6274V26.2575C20.9508 24.2505 22.9302 22.6937 24.633 22.6937H25.0382C26.741 22.6937 28.7204 24.2505 28.7204 26.2575V27.7042Z" fill="#18262D"/>
<path fill-rule="evenodd" clip-rule="evenodd" d="M21.6531 33.1182L21.5756 31.8926L22.2674 31.8491L22.3448 33.0747L21.6531 33.1182Z" fill="#18262D"/>
</svg>
